<?xml version="1.0" encoding="UTF-8"?>
<svg version="1.1" xmlns="http://www.w3.org/2000/svg" width="512" height="512">
<path d="M0 0 C37.6329151 32.88044711 47.24805306 92.98367033 53 140 C53.12535126 141.01722137 53.12535126 141.01722137 53.25323486 142.05499268 C58.20504761 182.89552972 58.03063292 225.17657751 53 266 C52.87271515 267.0404245 52.87271515 267.0404245 52.74285889 268.10186768 C47.02005061 314.28162199 36.89242097 375.34636585 -1 407 C-19.05855557 419.61312857 -37.56729809 417.99057945 -58.32226562 414.49169922 C-98.26190076 407.15778008 -132.04814663 382.14843473 -163.2890625 357.68359375 C-193.66634909 333.90027556 -221.23936254 312.69385091 -261 310 C-260.84853516 310.69859131 -260.69707031 311.39718262 -260.54101562 312.11694336 C-255.12436004 337.48564145 -252.19367209 361.17390716 -267.109375 384.265625 C-269.3055865 387.27973596 -271.58804941 390.1563061 -274 393 C-274.61488281 393.72832031 -275.22976563 394.45664062 -275.86328125 395.20703125 C-288.51055713 408.93758558 -306.28099594 415.66221242 -324.5703125 417.21875 C-330.16155862 417.44018549 -333.27084637 416.35553158 -337.56280994 412.65113926 C-339.25725547 410.70444786 -339.6173322 409.41159996 -340.12004089 406.89427185 C-340.29244797 406.06003693 -340.46485504 405.225802 -340.64248657 404.36628723 C-340.90682999 402.99859444 -340.90682999 402.99859444 -341.17651367 401.60327148 C-341.46977791 400.15902802 -341.46977791 400.15902802 -341.76896667 398.68560791 C-342.41300814 395.49954519 -343.04059578 392.31047694 -343.66796875 389.12109375 C-344.11113855 386.9103781 -344.55526846 384.69985472 -345.00032043 382.48951721 C-346.16959703 376.66768059 -347.32469484 370.84311403 -348.47723389 365.01794434 C-349.42210562 360.25485542 -350.37698154 355.49379887 -351.33240795 350.73281765 C-352.46839737 345.07123559 -353.60012661 339.40880573 -354.73046875 333.74609375 C-355.0558365 332.11658689 -355.0558365 332.11658689 -355.38777733 330.45416069 C-355.99802195 327.39233234 -356.60540113 324.32995175 -357.21166992 321.26733398 C-357.39397156 320.35351456 -357.57627319 319.43969513 -357.76409912 318.4981842 C-358.01002052 317.25106155 -358.01002052 317.25106155 -358.26091003 315.97874451 C-358.40450046 315.25442451 -358.54809088 314.5301045 -358.69603252 313.78383541 C-359 312 -359 312 -359 310 C-360.18335938 310.05800781 -361.36671875 310.11601562 -362.5859375 310.17578125 C-373.12697846 310.54276564 -380.83173737 310.34205497 -389.12890625 303.15625 C-401.60649283 290.46557371 -406.2144676 271.63643284 -409.6875 254.75 C-409.99131592 253.28856567 -409.99131592 253.28856567 -410.30126953 251.79760742 C-413.42707742 235.7762126 -414.3862722 219.72912324 -414.3125 203.4375 C-414.31034485 202.57148163 -414.3081897 201.70546326 -414.30596924 200.8132019 C-414.18191235 169.54835552 -412.32299216 128.45304866 -390 104 C-384.49881453 98.96743403 -379.21831996 95.7551386 -371.60232544 95.74171448 C-369.99639275 95.73147247 -369.99639275 95.73147247 -368.35801697 95.72102356 C-366.61096214 95.72485298 -366.61096214 95.72485298 -364.82861328 95.72875977 C-363.59376694 95.72353302 -362.35892059 95.71830627 -361.08665466 95.71292114 C-358.40420058 95.70267924 -355.72200245 95.69596298 -353.0395546 95.69503975 C-348.78393705 95.69309153 -344.52848075 95.67499285 -340.2729187 95.65428162 C-329.69466591 95.6051771 -319.11636905 95.57432663 -308.5380249 95.55297852 C-300.32968225 95.53638111 -292.12147766 95.51333347 -283.91322696 95.46995777 C-280.38323828 95.45189034 -276.85343748 95.43954661 -273.32339859 95.44125557 C-248.41627603 95.61030951 -248.41627603 95.61030951 -224.625 88.9375 C-223.9242334 88.63787354 -223.2234668 88.33824707 -222.50146484 88.02954102 C-206.94608333 81.15748367 -193.44916158 71.27782362 -180 61 C-179.37577148 60.52498047 -178.75154297 60.04996094 -178.10839844 59.56054688 C-174.3892775 56.7279242 -170.69126887 53.86886182 -167 51 C-127.89471053 20.60728797 -50.2987666 -39.08804596 0 0 Z M-53 26 C-77.02735977 58.31540426 -85.29446772 101.94460669 -90 141 C-90.15098145 142.22928223 -90.30196289 143.45856445 -90.45751953 144.72509766 C-95.10809314 184.35280093 -95.08062702 225.41415312 -90 265 C-89.91278687 265.6813501 -89.82557373 266.3627002 -89.73571777 267.06469727 C-84.48130705 307.52861463 -76.3795387 362.19370565 -43 390 C-37.95370484 393.70665991 -33.04012461 394.7621726 -26.8046875 394.51171875 C-17.46795404 392.80822003 -10.33685006 385.52858222 -4.921875 378.1796875 C22.01638769 338.33743185 28.90902242 287.85177669 33 241 C33.07347656 240.16968262 33.14695312 239.33936523 33.22265625 238.48388672 C37.9134238 182.10734804 32.39990423 122.78339193 15 69 C14.76345703 68.26040039 14.52691406 67.52080078 14.28320312 66.75878906 C7.59933887 46.29066563 -2.7214499 25.5252234 -20.8125 13.0625 C-34.90421104 8.36526299 -44.17062547 15.63269398 -53 26 Z M-376.94862175 124.01108551 C-377.29557657 124.66742729 -377.64253139 125.32376907 -378 126 C-378.49628906 126.91523438 -378.99257813 127.83046875 -379.50390625 128.7734375 C-397.44388935 172.86210446 -398.49083774 231.86130918 -380 276 C-377.77622442 280.41593349 -375.50778788 284.49221212 -372 288 C-369.79252955 288.2982616 -369.79252955 288.2982616 -367.2038269 288.24050903 C-365.68515518 288.24463303 -365.68515518 288.24463303 -364.13580322 288.24884033 C-363.02090515 288.24164978 -361.90600708 288.23445923 -360.75732422 288.22705078 C-359.5866037 288.22734283 -358.41588318 288.22763489 -357.20968628 288.22793579 C-353.99496203 288.22677919 -350.78041071 288.21673198 -347.56572104 288.20278788 C-344.20781292 288.19030592 -340.84990161 288.18911203 -337.49197388 288.18673706 C-331.13129983 288.18051481 -324.77069434 288.16409398 -318.41005051 288.14403808 C-311.16952276 288.1217022 -303.92899179 288.11069148 -296.68843818 288.10064721 C-281.79225389 288.07972836 -266.89613379 288.04453797 -252 288 C-252.31794012 286.56560844 -252.63610372 285.13126642 -252.95436096 283.69694519 C-253.13151422 282.89819064 -253.30866747 282.09943609 -253.491189 281.27647686 C-254.10967621 278.50929646 -254.753795 275.74855936 -255.40234375 272.98828125 C-264.68310801 232.88265722 -266.50461037 193.13434344 -260.1875 152.375 C-260.04666992 151.45952393 -259.90583984 150.54404785 -259.76074219 149.60083008 C-258.59042719 142.5270211 -257.02161653 135.56338187 -255.41918945 128.57666016 C-255.1865464 127.55792313 -254.95390335 126.5391861 -254.71421051 125.48957825 C-254.14387638 122.99280555 -253.57244449 120.49628953 -253 118 C-268.41178808 117.81299988 -283.82349116 117.67198748 -299.23614693 117.58550262 C-306.39284343 117.54427571 -313.54883448 117.48808586 -320.70507812 117.39648438 C-326.9435727 117.31666844 -333.18155638 117.26511653 -339.42054737 117.24729204 C-342.72352793 117.23687392 -346.02470877 117.20823905 -349.32730484 117.15415955 C-353.01742682 117.09613383 -356.70451525 117.0880852 -360.39501953 117.09179688 C-361.48618576 117.06303467 -362.57735199 117.03427246 -363.70158386 117.00463867 C-370.45452315 117.07820164 -373.33871683 118.18049793 -376.94862175 124.01108551 Z " fill="#000000" transform="translate(435,53)"/>
<path d="M0 0 C11.4935082 1.37586522 20.96762226 10.24757006 28 19 C38.54736534 33.62562239 42.57287903 50.71825844 40.609375 68.546875 C37.70164386 86.21693344 28.85457437 100.51155252 14.75 111.5 C13.51380767 112.353682 12.26423528 113.18842523 11 114 C10.3709375 114.42152344 9.741875 114.84304688 9.09375 115.27734375 C4.59433936 118.1085407 4.59433936 118.1085407 1.796875 117.59765625 C1.20390625 117.40042969 0.6109375 117.20320313 0 117 C-0.70902967 109.67026385 -1.37349603 102.33725293 -2 95 C-2.06364746 94.26458984 -2.12729492 93.52917969 -2.19287109 92.77148438 C-4.72376582 62.03593404 -3.26738673 30.61580944 0 0 Z " fill="#000000" transform="translate(365,197)"/>
</svg>
